<svg xmlns="http://www.w3.org/2000/svg" viewBox="0 0 107.2 53.9" preserveAspectRatio="xMinYMid"><defs><style>.a{fill:#82ba41;}.b{fill:#231f20;}</style></defs><title>phd_logo</title><path class="a" d="M87.1,34.1a3.3,3.3,0,1,1-3.3-3.3h.1a3.3,3.3,0,0,1,3.3,3.3h0M76.1,44H81V58.5h6.1V44H92V39.2H76.1Z" transform="translate(-4.4 -4.6)"/><path class="b" d="M13.3,7a2.8,2.8,0,0,0-.4-.8,2.4,2.4,0,0,0-2-.9c-1,0-2.2.4-2.2,1.7s1,1.5,1.6,1.6l1.9.5a2.7,2.7,0,0,1,2.1,2.5c0,1.3-1.1,2.8-3.5,2.8a3.9,3.9,0,0,1-2.2-.6,2.9,2.9,0,0,1-1.3-2l.9-.5a2.5,2.5,0,0,0,.2,1.1,2.4,2.4,0,0,0,2.3,1.2c1.8,0,2.6-1,2.6-2a1.5,1.5,0,0,0-.6-1.2,5.5,5.5,0,0,0-2.2-.8c-1.3-.3-2.8-.8-2.8-2.5s1.6-2.4,3.1-2.4a3.1,3.1,0,0,1,3.2,2Z" transform="translate(-4.4 -4.6)"/><path class="b" d="M21.1,14c-.9,0-1.6-.1-1.7-1h-.1a2.4,2.4,0,0,1-2.2,1.2,1.7,1.7,0,0,1-2-1.7c0-1.4,1.5-1.8,3.4-2.2l.7-.2V9.7c0-.4,0-1.4-1.5-1.4s-1.6.9-1.6,1.5h-.9a2.5,2.5,0,0,1,.4-1.1,2.3,2.3,0,0,1,2.1-1c.8,0,1.9.2,2.2,1.2a4.8,4.8,0,0,1,.1,1.2v2c0,1.1,0,1.4.9,1.4Zm-1.7-3.3H19l-1.5.4c-.7.2-1.5.4-1.5,1.2s.4,1,1.2,1a2.5,2.5,0,0,0,1.7-.7,2,2,0,0,0,.5-1.6Z" transform="translate(-4.4 -4.6)"/><path class="b" d="M27,14h-.8V10.8c0-1.2,0-1.6-.2-1.9a1.4,1.4,0,0,0-1.2-.5,1.7,1.7,0,0,0-1.5.7c-.4.5-.4.9-.4,2.2V14h-.8V7.8H23V8.9a1.9,1.9,0,0,1,2-1.3,2.1,2.1,0,0,1,1.7.7c.4.5.4,1,.4,2.4Z" transform="translate(-4.4 -4.6)"/><path class="b" d="M30,12.7c0,.6.2.8.5.8a1.6,1.6,0,0,0,.9-.4v.8a1.7,1.7,0,0,1-1,.3c-1.1,0-1.1-.6-1.1-1.8v-4H27.9V7.7h1.3V5.1H30V7.7h1.4v.7H30Z" transform="translate(-4.4 -4.6)"/><path class="b" d="M38,14c-.9,0-1.6-.1-1.7-1h-.1A2.4,2.4,0,0,1,34,14.2a1.7,1.7,0,0,1-2-1.7c0-1.4,1.5-1.8,3.4-2.2l.7-.2V9.7c0-.4,0-1.4-1.5-1.4S33,9.2,33,9.8h-.9a2.6,2.6,0,0,1,.4-1.1,2.3,2.3,0,0,1,2.1-1c.8,0,1.9.2,2.2,1.2a4.8,4.8,0,0,1,.1,1.2v2c0,1.1,0,1.4.9,1.3Zm-1.7-3.3H36l-1.5.4c-.7.2-1.5.4-1.5,1.2s.4,1,1.2,1a2.5,2.5,0,0,0,1.7-.7,2,2,0,0,0,.5-1.6Z" transform="translate(-4.4 -4.6)"/><path class="b" d="M50.1,12a3.4,3.4,0,0,1-3.4,2.3,3.8,3.8,0,0,1-3-1.2,5.6,5.6,0,0,1-1.1-3.6c0-2,.7-4.9,4-4.9A3.5,3.5,0,0,1,50.2,7l-.9.5a2.8,2.8,0,0,0-1-1.6,2.8,2.8,0,0,0-1.7-.5,2.5,2.5,0,0,0-2.3,1.1,4.8,4.8,0,0,0-.8,2.9,5.5,5.5,0,0,0,.8,3.1,2.9,2.9,0,0,0,2.5,1.1,2.4,2.4,0,0,0,1.5-.4,2.9,2.9,0,0,0,1.1-1.6Z" transform="translate(-4.4 -4.6)"/><rect class="b" x="47.3" y="0.1" width="0.8" height="9.25"/><path class="b" d="M59.7,14c-.9,0-1.6-.1-1.7-1h0a2.4,2.4,0,0,1-2.2,1.2,1.7,1.7,0,0,1-2-1.7c0-1.4,1.5-1.8,3.4-2.2l.7-.2V9.7c0-.4,0-1.4-1.5-1.4s-1.6.9-1.6,1.5H54a2.6,2.6,0,0,1,.4-1.1,2.3,2.3,0,0,1,2.1-1c.8,0,1.9.2,2.2,1.2a4.8,4.8,0,0,1,.1,1.2v2c0,1.1,0,1.4.9,1.3ZM58,10.7h-.4l-1.5.4c-.7.2-1.5.4-1.5,1.2s.4,1,1.2,1a2.5,2.5,0,0,0,1.7-.7A2,2,0,0,0,58,11Z" transform="translate(-4.4 -4.6)"/><path class="b" d="M61.6,14h-.8V7.7h.8v1a1.8,1.8,0,0,1,1.8-1.1h.4v.7h-.5a1.7,1.7,0,0,0-1.3.5c-.5.5-.5,1.2-.5,2.5Z" transform="translate(-4.4 -4.6)"/><path class="b" d="M70.4,14c-.9,0-1.6-.1-1.7-1h-.1a2.4,2.4,0,0,1-2.2,1.2,1.7,1.7,0,0,1-2-1.7c0-1.4,1.5-1.8,3.4-2.2l.7-.2V9.7c0-.4,0-1.4-1.5-1.4s-1.6.9-1.6,1.5h-.9a2.6,2.6,0,0,1,.4-1.1,2.3,2.3,0,0,1,2.1-1c.8,0,1.9.2,2.2,1.2a4.7,4.7,0,0,1,.1,1.2v2c0,1.1,0,1.4.9,1.3Zm-1.7-3.3h-.4l-1.5.4c-.7.2-1.5.4-1.5,1.2s.4,1,1.2,1a2.5,2.5,0,0,0,1.7-.7,2,2,0,0,0,.5-1.6Z" transform="translate(-4.4 -4.6)"/><path class="b" d="M82.1,12a3.4,3.4,0,0,1-3.4,2.3,3.8,3.8,0,0,1-3-1.2,5.6,5.6,0,0,1-1.1-3.6c0-2,.7-4.9,4-4.9A3.5,3.5,0,0,1,82.2,7l-.9.5a2.8,2.8,0,0,0-1-1.6,2.8,2.8,0,0,0-1.7-.5,2.5,2.5,0,0,0-2.3,1.1,4.8,4.8,0,0,0-.8,2.9,5.5,5.5,0,0,0,.8,3.1,2.9,2.9,0,0,0,2.5,1.1,2.4,2.4,0,0,0,1.5-.4,2.9,2.9,0,0,0,1.1-1.6Z" transform="translate(-4.4 -4.6)"/><path class="b" d="M85.7,14.1c-1.8,0-2.8-1.4-2.8-3.2s.8-3.4,2.8-3.4,2.8,1.6,2.8,3.2A3.1,3.1,0,0,1,85.6,14m0-5.9a1.9,1.9,0,0,0-1.4.6,3.2,3.2,0,0,0-.6,2.1c0,1.8.9,2.5,2,2.5a2.3,2.3,0,0,0,2-2.5c0-1.4,0-2.7-2-2.7" transform="translate(-4.4 -4.6)"/><path class="b" d="M94.7,14h-.8V12.8l-.3.6a2,2,0,0,1-1.7.7A1.9,1.9,0,0,1,90,13a5.8,5.8,0,0,1-.2-2.2V7.7h.8V11c0,1.4,0,2.5,1.4,2.5a1.7,1.7,0,0,0,1.3-.5c.6-.6.6-1.2.6-2.4V7.7h.8Z" transform="translate(-4.4 -4.6)"/><path class="b" d="M101.1,14h-.8V10.7c0-1.2,0-1.6-.2-1.9a1.4,1.4,0,0,0-1.2-.5,1.7,1.7,0,0,0-1.5.7c-.4.5-.4.9-.4,2.2V14h-.8V7.7H97V8.9a1.9,1.9,0,0,1,2-1.3,2.1,2.1,0,0,1,1.7.7c.4.5.4,1,.4,2.4Z" transform="translate(-4.4 -4.6)"/><path class="b" d="M103.9,12.7c0,.6.2.8.5.8a1.6,1.6,0,0,0,.9-.4v.8a1.7,1.7,0,0,1-1,.3c-1.1,0-1.1-.6-1.1-1.8v-4h-1.3V7.7h1.3V5.1h.7V7.7h1.4v.7h-1.4Z" transform="translate(-4.4 -4.6)"/><path class="b" d="M111.6,7.7l-2.8,7.2-.7,1.5a1.2,1.2,0,0,1-1.2.7l-.8-.2v-.8l.8.3c.4,0,.5-.2.8-.7l.3-.8.3-.9-2.2-6.3h.7l1.8,5.3,2-5.3Z" transform="translate(-4.4 -4.6)"/><path class="b" d="M4.4,17.4h11c2.1.1,3.9.2,5.5,1.8a6.3,6.3,0,0,1,1.6,4.5,6.7,6.7,0,0,1-1.8,4.9c-1.6,1.7-3.4,1.7-5.5,1.8H10.5v6.3H4.4Zm6.1,4.1v4.9H15a2.3,2.3,0,0,0,1.5-2.3A2.2,2.2,0,0,0,14,21.7Z" transform="translate(-4.4 -4.6)"/><path class="b" d="M24.2,17.4h6.1v12a2.9,2.9,0,0,0,.7,2.3,2.6,2.6,0,0,0,1.9.7,2.8,2.8,0,0,0,1.9-.7,2.9,2.9,0,0,0,.7-2.3v-12h6.1V27.6c0,2.2,0,5.1-2.3,7.2a9.5,9.5,0,0,1-6.6,2.3A9.8,9.8,0,0,1,26,34.8c-1.9-1.9-1.9-4-2-6Z" transform="translate(-4.4 -4.6)"/><path class="b" d="M44.8,17.4H56.2c1.2.1,3.4.1,4.9,1.6a4.6,4.6,0,0,1,1.3,3.3A4.8,4.8,0,0,1,61,25.7a5.2,5.2,0,0,1-1.6,1A4.4,4.4,0,0,1,63,31.2a5.6,5.6,0,0,1-1.4,3.9c-1.4,1.5-3.4,1.5-4.9,1.6H44.8Zm6.1,11.4v3.7h3.8a2,2,0,0,0,1.6-.6,1.8,1.8,0,0,0,.5-1.3,1.9,1.9,0,0,0-2.2-1.9Zm0-7.3v3.3h3.4c.6,0,2,0,2-1.6s-1.3-1.6-1.9-1.7Z" transform="translate(-4.4 -4.6)"/><polygon class="b" points="60.9 12.8 67 12.8 67 27.2 73.3 27.2 73.3 32.1 60.9 32.1 60.9 12.8"/><path class="b" d="M108.4,31.7a10.2,10.2,0,0,1-1.9,2.7A10.6,10.6,0,0,1,99,37.3c-6.9,0-10-5.2-10-10.1s3.5-10.5,10-10.5a10.6,10.6,0,0,1,7.7,3.1,9,9,0,0,1,1.6,2.3l-5.1,2.5c-.5-1.1-1.4-3.2-4-3.2a3.6,3.6,0,0,0-2.6,1,6,6,0,0,0-1.4,4.3c0,2.9,1.1,5.6,4.1,5.6a4.1,4.1,0,0,0,3.9-3.2Z" transform="translate(-4.4 -4.6)"/><polygon class="b" points="3 34.6 9.1 34.6 9.1 41.6 14.9 41.6 14.9 34.6 21 34.6 21 53.9 14.9 53.9 14.9 46.5 9.1 46.5 9.1 53.9 3 53.9 3 34.6"/><polygon class="b" points="23.6 34.6 38.9 34.6 38.9 38.9 29.7 38.9 29.7 41.7 38.3 41.7 38.3 45.9 29.7 45.9 29.7 49.7 39.8 49.7 39.8 53.9 23.6 53.9 23.6 34.6"/><path class="b" d="M49.9,39.2h6.9L64,58.5H57.5l-.8-2.7H49.9l-.8,2.7H42.5Zm3.4,5.5-2.1,6.8h4.1Z" transform="translate(-4.4 -4.6)"/><path class="b" d="M83.9,28.3a5.9,5.9,0,0,1,2.9.8V17.4H80.7V29.2a5.9,5.9,0,0,1,3.2-.9" transform="translate(-4.4 -4.6)"/><polygon class="b" points="61 34.6 67.1 34.6 67.1 49 74.5 49 74.5 53.9 61 53.9 61 34.6"/><polygon class="b" points="89.1 34.6 95.2 34.6 95.2 41.6 101 41.6 101 34.6 107.2 34.6 107.2 53.9 101 53.9 101 46.5 95.2 46.5 95.2 53.9 89.1 53.9 89.1 34.6"/></svg>